<svg width="170.152490234375px" height="117.21875px" xmlns="http://www.w3.org/2000/svg" viewBox="164.9237548828125 16.390625 170.152490234375 117.21875" style="background: none;" preserveAspectRatio="xMidYMid"><defs><filter id="editing-hole" x="-100%" y="-100%" width="300%" height="300%"><feFlood flood-color="#000000" result="black"></feFlood><feMorphology operator="dilate" radius="2" in="SourceGraphic" result="erode"></feMorphology><feGaussianBlur in="erode" stdDeviation="4" result="blur"></feGaussianBlur><feOffset in="blur" dx="2" dy="2" result="offset"></feOffset><feComposite operator="atop" in="offset" in2="black" result="merge"></feComposite><feComposite operator="in" in="merge" in2="SourceGraphic" result="inner-shadow"></feComposite></filter></defs><g filter="url(#editing-hole)"><g transform="translate(195.0900001525879, 97.26531219482422)"><path d="M2.59-12.62L2.65-17.17L18.18-43.67L24.31-43.67L9.54-17.57L20.71-17.57L20.71-24.78L26.36-25.18L26.36-17.57L32.87-17.57L32.87-12.62L26.36-12.62L26.36-4.96L30.68-4.96L30.68 0L16.51 0L16.51-4.96L20.71-4.96L20.71-12.62L2.59-12.62ZM54.91 0.52L54.91 0.52L54.91 0.52Q50.24 0.52 47.10-1.21L47.10-1.21L47.10-1.21Q43.96-2.94 42.07-5.96L42.07-5.96L42.07-5.96Q40.19-8.99 39.38-13.05L39.38-13.05L39.38-13.05Q38.57-17.11 38.57-21.78L38.57-21.78L38.57-21.78Q38.57-26.76 39.67-31.10L39.67-31.10L39.67-31.10Q40.76-35.43 42.61-38.06L42.61-38.06L42.61-38.06Q44.45-40.68 47.26-42.52L47.26-42.52L47.26-42.52Q50.07-44.37 54.97-44.37L54.97-44.37L54.97-44.37Q59.60-44.37 62.69-42.90L62.69-42.90L62.69-42.90Q65.77-41.43 67.77-38.39L67.77-38.39L67.77-38.39Q69.77-35.35 70.58-31.06L70.58-31.06L70.58-31.06Q71.39-26.76 71.39-21.95L71.39-21.95L71.39-21.95Q71.39-17.26 70.58-13.17L70.58-13.17L70.58-13.17Q69.77-9.07 67.86-6.04L67.86-6.04L67.86-6.04Q65.94-3.00 62.77-1.24L62.77-1.24L62.77-1.24Q59.60 0.52 54.91 0.52ZM54.91-4.61L54.91-4.61L54.91-4.61Q58.28-4.61 60.34-5.98L60.34-5.98L60.34-5.98Q62.40-7.35 63.45-9.71L63.45-9.71L63.45-9.71Q64.50-12.07 65.02-15.23L65.02-15.23L65.02-15.23Q65.54-18.38 65.54-21.95L65.54-21.95L65.54-21.95Q65.54-25.38 65.14-28.53L65.14-28.53L65.14-28.53Q64.73-31.69 63.58-34.11L63.58-34.11L63.58-34.11Q62.43-36.53 60.35-37.97L60.35-37.97L60.35-37.97Q58.28-39.41 54.97-39.41L54.97-39.41L54.97-39.41Q51.54-39.41 49.55-37.97L49.55-37.97L49.55-37.97Q47.56-36.53 46.58-34.50L46.58-34.50L46.58-34.50Q45.60-32.47 45.04-28.92L45.04-28.92L45.04-28.92Q44.48-25.38 44.48-21.95L44.48-21.95L44.48-21.95Q44.48-18.38 44.84-15.23L44.84-15.23L44.84-15.23Q45.20-12.07 46.31-9.71L46.31-9.71L46.31-9.71Q47.42-7.35 49.48-5.98L49.48-5.98L49.48-5.98Q51.54-4.61 54.91-4.61ZM76.95-12.62L77.01-17.17L92.53-43.67L98.67-43.67L83.89-17.57L95.07-17.57L95.07-24.78L100.71-25.18L100.71-17.57L107.23-17.57L107.23-12.62L100.71-12.62L100.71-4.96L105.04-4.96L105.04 0L90.86 0L90.86-4.96L95.07-4.96L95.07-12.62L76.95-12.62Z" fill="#712c8c"></path></g></g><style>text {
  font-size: 64px;
  font-family: Arial Black;
  dominant-baseline: central;
  text-anchor: middle;
}</style></svg>