<svg width="349.67249755859376px" height="117.21875px" xmlns="http://www.w3.org/2000/svg" viewBox="75.16375122070312 16.390625 349.67249755859376 117.21875" style="background: rgb(255, 255, 255);" preserveAspectRatio="xMidYMid"><defs><filter id="editing-hole" x="-100%" y="-100%" width="300%" height="300%"><feFlood flood-color="#000000" result="black"></feFlood><feMorphology operator="dilate" radius="2" in="SourceGraphic" result="erode"></feMorphology><feGaussianBlur in="erode" stdDeviation="4" result="blur"></feGaussianBlur><feOffset in="blur" dx="2" dy="2" result="offset"></feOffset><feComposite operator="atop" in="offset" in2="black" result="merge"></feComposite><feComposite operator="in" in="merge" in2="SourceGraphic" result="inner-shadow"></feComposite></filter></defs><g filter="url(#editing-hole)"><g transform="translate(129.1049988269806, 103.5603141784668)"><path d="M26.50-31.80L26.50-31.80Q26.50-34.34 25.58-35.61L25.58-35.61L25.58-35.61Q24.66-36.88 23.55-37.55L23.55-37.55L23.55-37.55Q22.44-38.23 21.12-38.59L21.12-38.59L21.12-38.59Q19.79-38.95 18.47-38.95L18.47-38.95L18.47-38.95Q16.28-38.95 14.63-38.45L14.63-38.45L14.63-38.45Q12.99-37.94 11.91-37.08L11.91-37.08L11.91-37.08Q10.83-36.21 10.28-35.06L10.28-35.06L10.28-35.06Q9.74-33.91 9.74-32.64L9.74-32.64L9.74-32.64Q9.74-30.74 10.41-29.57L10.41-29.57L10.41-29.57Q11.09-28.41 12.13-27.70L12.13-27.70L12.13-27.70Q13.17-26.99 14.42-26.59L14.42-26.59L14.42-26.59Q15.67-26.19 16.82-25.78L16.82-25.78L22.64-23.88L22.64-23.88Q25.27-23.05 27.27-21.98L27.27-21.98L27.27-21.98Q29.27-20.92 30.62-19.46L30.62-19.46L30.62-19.46Q31.98-18.01 32.68-16.10L32.68-16.10L32.68-16.10Q33.39-14.20 33.39-11.70L33.39-11.70L33.39-11.70Q33.39-8.99 32.28-6.68L32.28-6.68L32.28-6.68Q31.17-4.38 29.18-2.68L29.18-2.68L29.18-2.68Q27.20-0.98 24.44-0.01L24.44-0.01L24.44-0.01Q21.69 0.95 18.41 0.95L18.41 0.95L18.41 0.95Q15.04 0.95 12.65 0.19L12.65 0.19L12.65 0.19Q10.26-0.58 8.63-1.86L8.63-1.86L8.63-1.86Q7.00-3.14 6.02-4.78L6.02-4.78L6.02-4.78Q5.04-6.42 4.49-8.15L4.49-8.15L2.30-8.15L2.30-13.11L9.56-13.11L9.56-13.11Q9.56-9.91 10.24-8.58L10.24-8.58L10.24-8.58Q10.92-7.26 12.13-6.38L12.13-6.38L12.13-6.38Q13.34-5.50 15.01-5.06L15.01-5.06L15.01-5.06Q16.68-4.61 18.70-4.61L18.70-4.61L18.70-4.61Q20.66-4.61 22.23-5.07L22.23-5.07L22.23-5.07Q23.80-5.53 24.91-6.41L24.91-6.41L24.91-6.41Q26.01-7.29 26.60-8.54L26.60-8.54L26.60-8.54Q27.20-9.79 27.20-11.38L27.20-11.38L27.20-11.38Q27.20-13.14 26.46-14.36L26.46-14.36L26.46-14.36Q25.73-15.59 24.57-16.45L24.57-16.45L24.57-16.45Q23.42-17.31 22.05-17.86L22.05-17.86L22.05-17.86Q20.68-18.41 19.42-18.81L19.42-18.81L13.11-20.60L13.11-20.60Q11.03-21.23 9.32-22.21L9.32-22.21L9.32-22.21Q7.61-23.19 6.38-24.60L6.38-24.60L6.38-24.60Q5.16-26.01 4.49-27.90L4.49-27.90L4.49-27.90Q3.83-29.79 3.83-32.27L3.83-32.27L3.83-32.27Q3.83-34.77 4.81-36.96L4.81-36.96L4.81-36.96Q5.79-39.15 7.69-40.79L7.69-40.79L7.69-40.79Q9.59-42.44 12.34-43.37L12.34-43.37L12.34-43.37Q15.10-44.31 18.64-44.31L18.64-44.31L18.64-44.31Q20.97-44.31 22.95-43.76L22.95-43.76L22.95-43.76Q24.92-43.21 26.52-42.22L26.52-42.22L26.52-42.22Q28.12-41.23 29.34-39.83L29.34-39.83L29.34-39.83Q30.57-38.43 31.40-36.76L31.40-36.76L33.56-36.76L33.56-31.80L26.50-31.80ZM46.38-39.47L46.38-29.85L53.38-29.85L53.38-25.50L46.32-25.50L46.24-8.27L46.24-8.27Q46.24-6.51 46.64-5.42L46.64-5.42L46.64-5.42Q47.04-4.32 47.94-3.90L47.94-3.90L47.94-3.90Q48.83-3.49 49.95-3.49L49.95-3.49L49.95-3.49Q51.16-3.49 52.09-3.70L52.09-3.70L52.09-3.70Q53.01-3.92 54.10-4.44L54.10-4.44L55.34-0.84L55.34-0.84Q53.96-0.12 52.43 0.30L52.43 0.30L52.43 0.30Q50.90 0.72 48.83 0.72L48.83 0.72L48.83 0.72Q46.87 0.72 45.42 0.24L45.42 0.24L45.42 0.24Q43.96-0.23 42.97-1.35L42.97-1.35L42.97-1.35Q41.97-2.48 41.48-4.36L41.48-4.36L41.48-4.36Q40.99-6.25 40.99-9.07L40.99-9.07L41.08-25.50L36.33-25.50L36.33-29.85L41.14-29.85L41.14-36.99L46.38-39.47ZM81.15-30.02L81.15-23.54L75.68-23.54L75.68-25.38L75.68-25.38Q74.73-25.38 73.74-25.02L73.74-25.02L73.74-25.02Q72.74-24.66 71.88-23.93L71.88-23.93L71.88-23.93Q71.01-23.19 70.36-22.05L70.36-22.05L70.36-22.05Q69.72-20.92 69.43-19.36L69.43-19.36L69.43-4.96L74.50-4.96L74.50 0L59.69 0L59.69-4.96L63.81-4.96L63.84-24.89L59.69-24.89L59.69-29.85L69.23-29.85L69.23-25.73L69.23-25.73Q69.75-26.65 70.39-27.44L70.39-27.44L70.39-27.44Q71.04-28.23 71.83-28.82L71.83-28.82L71.83-28.82Q72.63-29.41 73.59-29.74L73.59-29.74L73.59-29.74Q74.56-30.08 75.68-30.08L75.68-30.08L75.68-30.08Q77.18-30.08 78.50-30.08L78.50-30.08L78.50-30.08Q79.83-30.08 81.15-30.02L81.15-30.02ZM104.89 0L104.89-2.77L104.89-2.77Q103.19-1.18 101.13-0.17L101.13-0.17L101.13-0.17Q99.07 0.84 96.45 0.84L96.45 0.84L96.45 0.84Q94.26 0.84 92.43 0.14L92.43 0.14L92.43 0.14Q90.60-0.55 89.28-1.74L89.28-1.74L89.28-1.74Q87.95-2.94 87.22-4.52L87.22-4.52L87.22-4.52Q86.48-6.11 86.48-7.89L86.48-7.89L86.48-7.89Q86.48-9.79 87.05-11.26L87.05-11.26L87.05-11.26Q87.61-12.73 88.54-13.81L88.54-13.81L88.54-13.81Q89.48-14.89 90.73-15.63L90.73-15.63L90.73-15.63Q91.99-16.36 93.35-16.81L93.35-16.81L93.35-16.81Q94.72-17.26 96.15-17.44L96.15-17.44L96.15-17.44Q97.57-17.63 98.87-17.63L98.87-17.63L98.87-17.63Q100.95-17.63 102.36-17.50L102.36-17.50L102.36-17.50Q103.77-17.37 104.92-17.14L104.92-17.14L104.95-19.59L104.95-19.59Q104.95-21.17 104.49-22.34L104.49-22.34L104.49-22.34Q104.03-23.51 103.19-24.27L103.19-24.27L103.19-24.27Q102.36-25.03 101.19-25.41L101.19-25.41L101.19-25.41Q100.02-25.78 98.58-25.78L98.58-25.78L98.58-25.78Q97.23-25.78 95.99-25.60L95.99-25.60L95.99-25.60Q94.75-25.41 93.67-25.11L93.67-25.11L93.67-25.11Q92.59-24.80 91.68-24.42L91.68-24.42L91.68-24.42Q90.78-24.03 90.14-23.59L90.14-23.59L88.38-27.31L88.38-27.31Q89.45-28.00 90.72-28.59L90.72-28.59L90.72-28.59Q91.99-29.18 93.38-29.60L93.38-29.60L93.38-29.60Q94.78-30.02 96.24-30.26L96.24-30.26L96.24-30.26Q97.69-30.51 99.10-30.51L99.10-30.51L99.10-30.51Q101.69-30.51 103.77-29.89L103.77-29.89L103.77-29.89Q105.84-29.27 107.28-27.97L107.28-27.97L107.28-27.97Q108.72-26.68 109.50-24.67L109.50-24.67L109.50-24.67Q110.28-22.67 110.28-19.88L110.28-19.88L110.25-4.96L113.56-4.96L113.56 0L104.89 0ZM97.63-3.66L97.63-3.66L97.63-3.66Q98.70-3.66 99.76-3.92L99.76-3.92L99.76-3.92Q100.83-4.18 101.78-4.62L101.78-4.62L101.78-4.62Q102.73-5.07 103.54-5.66L103.54-5.66L103.54-5.66Q104.34-6.25 104.89-6.89L104.89-6.89L104.92-13.63L98.70-13.63L98.70-13.63Q97.14-13.63 95.86-13.28L95.86-13.28L95.86-13.28Q94.58-12.94 93.64-12.27L93.64-12.27L93.64-12.27Q92.71-11.61 92.19-10.63L92.19-10.63L92.19-10.63Q91.67-9.65 91.67-8.38L91.67-8.38L91.67-8.38Q91.67-7.20 92.10-6.32L92.10-6.32L92.10-6.32Q92.53-5.44 93.33-4.85L93.33-4.85L93.33-4.85Q94.12-4.26 95.21-3.96L95.21-3.96L95.21-3.96Q96.31-3.66 97.63-3.66ZM128.26-39.47L128.26-29.85L135.26-29.85L135.26-25.50L128.20-25.50L128.11-8.27L128.11-8.27Q128.11-6.51 128.52-5.42L128.52-5.42L128.52-5.42Q128.92-4.32 129.81-3.90L129.81-3.90L129.81-3.90Q130.70-3.49 131.83-3.49L131.83-3.49L131.83-3.49Q133.04-3.49 133.96-3.70L133.96-3.70L133.96-3.70Q134.88-3.92 135.98-4.44L135.98-4.44L137.22-0.84L137.22-0.84Q135.83-0.12 134.31 0.30L134.31 0.30L134.31 0.30Q132.78 0.72 130.70 0.72L130.70 0.72L130.70 0.72Q128.75 0.72 127.29 0.24L127.29 0.24L127.29 0.24Q125.84-0.23 124.84-1.35L124.84-1.35L124.84-1.35Q123.85-2.48 123.36-4.36L123.36-4.36L123.36-4.36Q122.87-6.25 122.87-9.07L122.87-9.07L122.96-25.50L118.20-25.50L118.20-29.85L123.01-29.85L123.01-36.99L128.26-39.47ZM168.13-14.23L146.64-14.23L146.64-14.23Q146.64-12.96 146.82-11.91L146.82-11.91L146.82-11.91Q147.01-10.86 147.36-9.91L147.36-9.91L147.36-9.91Q148.42-7.03 150.77-5.57L150.77-5.57L150.77-5.57Q153.12-4.12 156.08-4.12L156.08-4.12L156.08-4.12Q158.42-4.12 160.62-4.77L160.62-4.77L160.62-4.77Q162.83-5.42 165.25-6.80L165.25-6.80L167.41-3.14L167.41-3.14Q164.47-1.12 161.50-0.14L161.50-0.14L161.50-0.14Q158.53 0.84 155.34 0.84L155.34 0.84L155.34 0.84Q152.31 0.84 149.73-0.17L149.73-0.17L149.73-0.17Q147.15-1.18 145.30-3.17L145.30-3.17L145.30-3.17Q143.44-5.16 142.39-8.12L142.39-8.12L142.39-8.12Q141.33-11.09 141.33-15.04L141.33-15.04L141.33-15.04Q141.33-18.24 142.23-21.07L142.23-21.07L142.23-21.07Q143.12-23.91 144.89-26.03L144.89-26.03L144.89-26.03Q146.66-28.15 149.29-29.38L149.29-29.38L149.29-29.38Q151.91-30.62 155.39-30.62L155.39-30.62L155.39-30.62Q158.76-30.62 161.03-29.60L161.03-29.60L161.03-29.60Q163.29-28.58 164.71-26.89L164.71-26.89L164.71-26.89Q166.14-25.21 166.87-23.05L166.87-23.05L166.87-23.05Q167.61-20.89 167.90-18.64L167.90-18.64L167.90-18.64Q168.04-17.54 168.08-16.42L168.08-16.42L168.08-16.42Q168.13-15.30 168.13-14.23L168.13-14.23ZM155.02-26.13L155.02-26.13L155.02-26.13Q153.15-26.13 151.75-25.60L151.75-25.60L151.75-25.60Q150.35-25.06 149.37-24.07L149.37-24.07L149.37-24.07Q148.39-23.08 147.80-21.64L147.80-21.64L147.80-21.64Q147.21-20.19 146.92-18.41L146.92-18.41L162.39-18.41L162.39-18.41Q162.28-20.08 161.86-21.49L161.86-21.49L161.86-21.49Q161.44-22.90 160.58-23.94L160.58-23.94L160.58-23.94Q159.71-24.98 158.36-25.55L158.36-25.55L158.36-25.55Q157.01-26.13 155.02-26.13ZM197.25-2.19L197.25-2.62L197.25-2.62Q195.78-1.07 193.84-0.20L193.84-0.20L193.84-0.20Q191.89 0.66 189.42 0.66L189.42 0.66L189.42 0.66Q186.39 0.66 183.78-0.39L183.78-0.39L183.78-0.39Q181.18-1.44 179.26-3.47L179.26-3.47L179.26-3.47Q177.35-5.50 176.27-8.46L176.27-8.46L176.27-8.46Q175.19-11.41 175.19-15.21L175.19-15.21L175.19-15.21Q175.19-18.67 176.22-21.51L176.22-21.51L176.22-21.51Q177.26-24.34 179.16-26.35L179.16-26.35L179.16-26.35Q181.06-28.35 183.74-29.46L183.74-29.46L183.74-29.46Q186.42-30.57 189.70-30.57L189.70-30.57L189.70-30.57Q191.95-30.57 193.75-30.06L193.75-30.06L193.75-30.06Q195.55-29.56 197.25-28.32L197.25-28.32L197.25-29.85L202.61-29.85L202.61-1.18L202.61-1.18Q202.61 5.91 199.25 9.54L199.25 9.54L199.25 9.54Q195.90 13.17 188.81 13.17L188.81 13.17L188.81 13.17Q187.26 13.17 185.56 12.94L185.56 12.94L185.56 12.94Q183.86 12.70 182.20 12.20L182.20 12.20L182.20 12.20Q180.54 11.70 178.97 10.92L178.97 10.92L178.97 10.92Q177.40 10.14 176.08 9.02L176.08 9.02L178.96 4.67L178.96 4.67Q179.82 5.42 180.93 6.05L180.93 6.05L180.93 6.05Q182.04 6.68 183.31 7.13L183.31 7.13L183.31 7.13Q184.58 7.58 185.93 7.84L185.93 7.84L185.93 7.84Q187.28 8.10 188.64 8.10L188.64 8.10L188.64 8.10Q190.86 8.10 192.48 7.63L192.48 7.63L192.48 7.63Q194.11 7.17 195.16 6.01L195.16 6.01L195.16 6.01Q196.22 4.84 196.73 2.85L196.73 2.85L196.73 2.85Q197.25 0.86 197.25-2.19L197.25-2.19ZM190.11-4.00L190.11-4.00L190.11-4.00Q191.43-4.00 192.53-4.26L192.53-4.26L192.53-4.26Q193.62-4.52 194.52-4.94L194.52-4.94L194.52-4.94Q195.41-5.36 196.09-5.91L196.09-5.91L196.09-5.91Q196.76-6.45 197.25-7.06L197.25-7.06L197.25-23.39L197.25-23.39Q195.78-24.69 193.87-25.27L193.87-25.27L193.87-25.27Q191.95-25.84 189.94-25.84L189.94-25.84L189.94-25.84Q188.03-25.84 186.36-25.14L186.36-25.14L186.36-25.14Q184.69-24.43 183.44-23.08L183.44-23.08L183.44-23.08Q182.19-21.72 181.47-19.76L181.47-19.76L181.47-19.76Q180.75-17.80 180.75-15.27L180.75-15.27L180.75-15.27Q180.75-12.50 181.44-10.40L181.44-10.40L181.44-10.40Q182.13-8.30 183.37-6.87L183.37-6.87L183.37-6.87Q184.61-5.44 186.33-4.72L186.33-4.72L186.33-4.72Q188.06-4.00 190.11-4.00ZM209.58-14.92L209.58-14.92L209.58-14.92Q209.61-18.47 210.72-21.38L210.72-21.38L210.72-21.38Q211.83-24.29 213.82-26.37L213.82-26.37L213.82-26.37Q215.81-28.46 218.54-29.59L218.54-29.59L218.54-29.59Q221.28-30.71 224.56-30.71L224.56-30.71L224.56-30.71Q227.88-30.71 230.63-29.59L230.63-29.59L230.63-29.59Q233.38-28.46 235.34-26.40L235.34-26.40L235.34-26.40Q237.30-24.34 238.39-21.43L238.39-21.43L238.39-21.43Q239.49-18.52 239.49-14.98L239.49-14.98L239.49-14.98Q239.49-11.49 238.39-8.57L238.39-8.57L238.39-8.57Q237.30-5.65 235.34-3.54L235.34-3.54L235.34-3.54Q233.38-1.44 230.63-0.27L230.63-0.27L230.63-0.27Q227.88 0.89 224.56 0.89L224.56 0.89L224.56 0.89Q221.19 0.89 218.46-0.26L218.46-0.26L218.46-0.26Q215.72-1.41 213.76-3.50L213.76-3.50L213.76-3.50Q211.80-5.59 210.71-8.50L210.71-8.50L210.71-8.50Q209.61-11.41 209.58-14.92ZM215.26-14.92L215.26-14.92L215.26-14.92Q215.26-12.36 215.99-10.28L215.99-10.28L215.99-10.28Q216.73-8.21 218.01-6.76L218.01-6.76L218.01-6.76Q219.29-5.30 220.98-4.51L220.98-4.51L220.98-4.51Q222.66-3.72 224.56-3.72L224.56-3.72L224.56-3.72Q226.55-3.72 228.26-4.49L228.26-4.49L228.26-4.49Q229.98-5.27 231.25-6.73L231.25-6.73L231.25-6.73Q232.51-8.18 233.23-10.26L233.23-10.26L233.23-10.26Q233.95-12.33 233.95-14.92L233.95-14.92L233.95-14.92Q233.95-17.63 233.23-19.73L233.23-19.73L233.23-19.73Q232.51-21.84 231.26-23.25L231.26-23.25L231.26-23.25Q230.01-24.66 228.28-25.38L228.28-25.38L228.28-25.38Q226.55-26.10 224.56-26.10L224.56-26.10L224.56-26.10Q222.66-26.10 220.98-25.38L220.98-25.38L220.98-25.38Q219.29-24.66 218.01-23.25L218.01-23.25L218.01-23.25Q216.73-21.84 215.99-19.73L215.99-19.73L215.99-19.73Q215.26-17.63 215.26-14.92Z" fill="#dc93f8"></path></g></g><style>text {
  font-size: 64px;
  font-family: Arial Black;
  dominant-baseline: central;
  text-anchor: middle;
}</style></svg>